<?xml version="1.0" encoding="UTF-8" standalone="no"?>
<!DOCTYPE svg PUBLIC "-//W3C//DTD SVG 1.1//EN"
 "http://www.w3.org/Graphics/SVG/1.1/DTD/svg11.dtd">
<!-- Generated by graphviz version 2.40.1 (20161225.0304)
 -->
<!-- Title: G Pages: 1 -->
<svg width="5713pt" height="476pt"
 viewBox="0.00 0.00 5713.38 476.00" xmlns="http://www.w3.org/2000/svg" xmlns:xlink="http://www.w3.org/1999/xlink">
<g id="graph0" class="graph" transform="scale(1 1) rotate(0) translate(4 472)">
<title>G</title>
<polygon fill="#ffffff" stroke="transparent" points="-4,4 -4,-472 5709.3836,-472 5709.3836,4 -4,4"/>
<!-- n0 -->
<g id="node1" class="node">
<title>n0</title>
<polygon fill="none" stroke="#000000" points="2407.3282,-468 2374.0535,-468 2362.2031,-432 2419.1786,-432 2407.3282,-468"/>
<text text-anchor="middle" x="2390.6908" y="-446.3" font-family="Times,serif" font-size="14.00" fill="#000000">art</text>
</g>
<!-- n1 -->
<g id="node2" class="node">
<title>n1</title>
<polygon fill="none" stroke="#000000" points="2277.6541,-108 2191.7275,-108 2161.1257,-72 2308.256,-72 2277.6541,-108"/>
<text text-anchor="middle" x="2234.6908" y="-86.3" font-family="Times,serif" font-size="14.00" fill="#000000">architecture</text>
</g>
<!-- n2 -->
<g id="node3" class="node">
<title>n2</title>
<polygon fill="none" stroke="#000000" points="291.6273,-180 129.7544,-180 72.105,-144 349.2766,-144 291.6273,-180"/>
<text text-anchor="middle" x="210.6908" y="-158.3" font-family="Times,serif" font-size="14.00" fill="#000000">bridges_heat_source_cpi</text>
</g>
<!-- n1&#45;&gt;n2 -->
<g id="edge1" class="edge">
<title>n1&#45;&gt;n2</title>
<path fill="none" stroke="#000000" d="M2177.0474,-91.0961C1904.6217,-96.3659 744.3602,-119.837 382.6908,-144 373.6708,-144.6026 364.3933,-145.3125 355.0436,-146.096"/>
<polygon fill="#000000" stroke="#000000" points="354.5405,-142.6264 344.8786,-146.9736 355.1426,-149.6004 354.5405,-142.6264"/>
</g>
<!-- n3 -->
<g id="node4" class="node">
<title>n3</title>
<polygon fill="none" stroke="#000000" points="662.5148,-180 462.8669,-180 391.7643,-144 733.6173,-144 662.5148,-180"/>
<text text-anchor="middle" x="562.6908" y="-158.3" font-family="Times,serif" font-size="14.00" fill="#000000">bridges_operator_interface_oip</text>
</g>
<!-- n1&#45;&gt;n3 -->
<g id="edge2" class="edge">
<title>n1&#45;&gt;n3</title>
<path fill="none" stroke="#000000" d="M2177.5125,-91.2782C1983.0155,-95.8095 1329.145,-112.546 789.6908,-144 772.1252,-145.0242 753.806,-146.2364 735.5261,-147.5401"/>
<polygon fill="#000000" stroke="#000000" points="735.1014,-144.0616 725.3797,-148.2733 735.606,-151.0434 735.1014,-144.0616"/>
</g>
<!-- n4 -->
<g id="node5" class="node">
<title>n4</title>
<polygon fill="none" stroke="#000000" points="1079.234,-180 872.1477,-180 798.3961,-144 1152.9856,-144 1079.234,-180"/>
<text text-anchor="middle" x="975.6908" y="-158.3" font-family="Times,serif" font-size="14.00" fill="#000000">bridges_temperature_sensor_cpi</text>
</g>
<!-- n1&#45;&gt;n4 -->
<g id="edge3" class="edge">
<title>n1&#45;&gt;n4</title>
<path fill="none" stroke="#000000" d="M2178.3284,-92.5012C2023.6563,-99.4669 1579.5447,-120.1514 1210.6908,-144 1192.1749,-145.1972 1172.8452,-146.535 1153.571,-147.9261"/>
<polygon fill="#000000" stroke="#000000" points="1153.2214,-144.4421 1143.5015,-148.6579 1153.7289,-151.4237 1153.2214,-144.4421"/>
</g>
<!-- n5 -->
<g id="node6" class="node">
<title>n5</title>
<polygon fill="none" stroke="#000000" points="1701.5136,-180 1345.8681,-180 1219.2085,-144 1828.1731,-144 1701.5136,-180"/>
<text text-anchor="middle" x="1523.6908" y="-158.3" font-family="Times,serif" font-size="14.00" fill="#000000">bridges_thermostat_monitor_temperature_manage_alarm</text>
</g>
<!-- n1&#45;&gt;n5 -->
<g id="edge4" class="edge">
<title>n1&#45;&gt;n5</title>
<path fill="none" stroke="#000000" d="M2180.9588,-95.4412C2082.5087,-105.4109 1868.8923,-127.0429 1711.7931,-142.9517"/>
<polygon fill="#000000" stroke="#000000" points="1711.1252,-139.5013 1701.5288,-143.9911 1711.8305,-146.4657 1711.1252,-139.5013"/>
</g>
<!-- n6 -->
<g id="node7" class="node">
<title>n6</title>
<polygon fill="none" stroke="#000000" points="2447.7465,-180 2021.6351,-180 1869.8799,-144 2599.5017,-144 2447.7465,-180"/>
<text text-anchor="middle" x="2234.6908" y="-158.3" font-family="Times,serif" font-size="14.00" fill="#000000">bridges_thermostat_monitor_temperature_manage_monitor_interface</text>
</g>
<!-- n1&#45;&gt;n6 -->
<g id="edge5" class="edge">
<title>n1&#45;&gt;n6</title>
<path fill="none" stroke="#000000" d="M2234.6908,-108.1686C2234.6908,-115.869 2234.6908,-125.0257 2234.6908,-133.5834"/>
<polygon fill="#000000" stroke="#000000" points="2231.1909,-133.5867 2234.6908,-143.5867 2238.1909,-133.5868 2231.1909,-133.5867"/>
</g>
<!-- n7 -->
<g id="node8" class="node">
<title>n7</title>
<polygon fill="none" stroke="#000000" points="3194.5475,-180 2786.8341,-180 2641.6312,-144 3339.7505,-144 3194.5475,-180"/>
<text text-anchor="middle" x="2990.6908" y="-158.3" font-family="Times,serif" font-size="14.00" fill="#000000">bridges_thermostat_monitor_temperature_manage_monitor_mode</text>
</g>
<!-- n1&#45;&gt;n7 -->
<g id="edge6" class="edge">
<title>n1&#45;&gt;n7</title>
<path fill="none" stroke="#000000" d="M2288.7571,-95.1492C2392.1379,-104.995 2622.5564,-126.9396 2791.3051,-143.0109"/>
<polygon fill="#000000" stroke="#000000" points="2791.028,-146.5002 2801.3148,-143.9642 2791.6917,-139.5318 2791.028,-146.5002"/>
</g>
<!-- n8 -->
<g id="node9" class="node">
<title>n8</title>
<polygon fill="none" stroke="#000000" points="3925.13,-180 3534.2517,-180 3395.0443,-144 4064.3373,-144 3925.13,-180"/>
<text text-anchor="middle" x="3729.6908" y="-158.3" font-family="Times,serif" font-size="14.00" fill="#000000">bridges_thermostat_regulate_temperature_manage_heat_source</text>
</g>
<!-- n1&#45;&gt;n8 -->
<g id="edge7" class="edge">
<title>n1&#45;&gt;n8</title>
<path fill="none" stroke="#000000" d="M2291.0188,-92.7128C2468.6791,-101.269 3027.1389,-128.1647 3393.7348,-145.8202"/>
<polygon fill="#000000" stroke="#000000" points="3393.8257,-149.3285 3403.9825,-146.3137 3394.1625,-142.3366 3393.8257,-149.3285"/>
</g>
<!-- n9 -->
<g id="node10" class="node">
<title>n9</title>
<polygon fill="none" stroke="#000000" points="4709.4865,-180 4277.8952,-180 4124.1884,-144 4863.1933,-144 4709.4865,-180"/>
<text text-anchor="middle" x="4493.6908" y="-158.3" font-family="Times,serif" font-size="14.00" fill="#000000">bridges_thermostat_regulate_temperature_manage_regulator_interface</text>
</g>
<!-- n1&#45;&gt;n9 -->
<g id="edge8" class="edge">
<title>n1&#45;&gt;n9</title>
<path fill="none" stroke="#000000" d="M2291.9022,-91.3989C2518.0374,-96.9879 3371.4499,-118.6429 4073.6908,-144 4089.9234,-144.5861 4106.5079,-145.2064 4123.2605,-145.8504"/>
<polygon fill="#000000" stroke="#000000" points="4123.5836,-149.3655 4133.7114,-146.2544 4123.8541,-142.3707 4123.5836,-149.3655"/>
</g>
<!-- n10 -->
<g id="node11" class="node">
<title>n10</title>
<polygon fill="none" stroke="#000000" points="5487.7771,-180 5073.6046,-180 4926.1013,-144 5635.2804,-144 5487.7771,-180"/>
<text text-anchor="middle" x="5280.6908" y="-158.3" font-family="Times,serif" font-size="14.00" fill="#000000">bridges_thermostat_regulate_temperature_manage_regulator_mode</text>
</g>
<!-- n1&#45;&gt;n10 -->
<g id="edge9" class="edge">
<title>n1&#45;&gt;n10</title>
<path fill="none" stroke="#000000" d="M2292.7217,-90.6801C2575.6286,-94.1023 3838.537,-110.6079 4872.6908,-144 4889.648,-144.5475 4906.9998,-145.15 4924.5243,-145.7923"/>
<polygon fill="#000000" stroke="#000000" points="4924.7381,-149.3025 4934.8607,-146.1749 4924.9971,-142.3073 4924.7381,-149.3025"/>
</g>
<!-- n21 -->
<g id="node22" class="node">
<title>n21</title>
<polygon fill="none" stroke="#000000" points="257.8166,-252 67.5651,-252 -.1911,-216 325.5727,-216 257.8166,-252"/>
<text text-anchor="middle" x="162.6908" y="-230.3" font-family="Times,serif" font-size="14.00" fill="#000000">components_heat_source_cpi</text>
</g>
<!-- n2&#45;&gt;n21 -->
<g id="edge10" class="edge">
<title>n2&#45;&gt;n21</title>
<path fill="none" stroke="#000000" d="M198.5784,-180.1686C193.1627,-188.2921 186.6667,-198.0363 180.6987,-206.9882"/>
<polygon fill="#000000" stroke="#000000" points="177.6012,-205.3247 174.9663,-215.5867 183.4256,-209.2077 177.6012,-205.3247"/>
</g>
<!-- n22 -->
<g id="node23" class="node">
<title>n22</title>
<polygon fill="none" stroke="#000000" points="652.4122,-252 424.9695,-252 343.9681,-216 733.4136,-216 652.4122,-252"/>
<text text-anchor="middle" x="538.6908" y="-230.3" font-family="Times,serif" font-size="14.00" fill="#000000">components_operator_interface_oip</text>
</g>
<!-- n3&#45;&gt;n22 -->
<g id="edge11" class="edge">
<title>n3&#45;&gt;n22</title>
<path fill="none" stroke="#000000" d="M556.6346,-180.1686C554.0396,-187.9537 550.9485,-197.2271 548.0691,-205.8653"/>
<polygon fill="#000000" stroke="#000000" points="544.6705,-204.9931 544.8286,-215.5867 551.3113,-207.2067 544.6705,-204.9931"/>
</g>
<!-- n23 -->
<g id="node24" class="node">
<title>n23</title>
<polygon fill="none" stroke="#000000" points="1070.1314,-252 835.2503,-252 751.5997,-216 1153.7819,-216 1070.1314,-252"/>
<text text-anchor="middle" x="952.6908" y="-230.3" font-family="Times,serif" font-size="14.00" fill="#000000">components_temperature_sensor_cpi</text>
</g>
<!-- n4&#45;&gt;n23 -->
<g id="edge12" class="edge">
<title>n4&#45;&gt;n23</title>
<path fill="none" stroke="#000000" d="M969.887,-180.1686C967.4001,-187.9537 964.4377,-197.2271 961.6783,-205.8653"/>
<polygon fill="#000000" stroke="#000000" points="958.2819,-204.9959 958.5729,-215.5867 964.9499,-207.126 958.2819,-204.9959"/>
</g>
<!-- n24 -->
<g id="node25" class="node">
<title>n24</title>
<polygon fill="none" stroke="#000000" points="1691.4109,-252 1307.9708,-252 1171.4125,-216 1827.9692,-216 1691.4109,-252"/>
<text text-anchor="middle" x="1499.6908" y="-230.3" font-family="Times,serif" font-size="14.00" fill="#000000">components_thermostat_monitor_temperature_manage_alarm</text>
</g>
<!-- n5&#45;&gt;n24 -->
<g id="edge13" class="edge">
<title>n5&#45;&gt;n24</title>
<path fill="none" stroke="#000000" d="M1517.6346,-180.1686C1515.0396,-187.9537 1511.9485,-197.2271 1509.0691,-205.8653"/>
<polygon fill="#000000" stroke="#000000" points="1505.6705,-204.9931 1505.8286,-215.5867 1512.3113,-207.2067 1505.6705,-204.9931"/>
</g>
<!-- n25 -->
<g id="node26" class="node">
<title>n25</title>
<polygon fill="none" stroke="#000000" points="2461.6439,-252 2007.7377,-252 1846.0837,-216 2623.298,-216 2461.6439,-252"/>
<text text-anchor="middle" x="2234.6908" y="-230.3" font-family="Times,serif" font-size="14.00" fill="#000000">components_thermostat_monitor_temperature_manage_monitor_interface</text>
</g>
<!-- n6&#45;&gt;n25 -->
<g id="edge14" class="edge">
<title>n6&#45;&gt;n25</title>
<path fill="none" stroke="#000000" d="M2234.6908,-180.1686C2234.6908,-187.869 2234.6908,-197.0257 2234.6908,-205.5834"/>
<polygon fill="#000000" stroke="#000000" points="2231.1909,-205.5867 2234.6908,-215.5867 2238.1909,-205.5868 2231.1909,-205.5867"/>
</g>
<!-- n26 -->
<g id="node27" class="node">
<title>n26</title>
<polygon fill="none" stroke="#000000" points="3234.2264,-252 2797.1552,-252 2641.4968,-216 3389.8849,-216 3234.2264,-252"/>
<text text-anchor="middle" x="3015.6908" y="-230.3" font-family="Times,serif" font-size="14.00" fill="#000000">components_thermostat_monitor_temperature_manage_monitor_mode</text>
</g>
<!-- n7&#45;&gt;n26 -->
<g id="edge15" class="edge">
<title>n7&#45;&gt;n26</title>
<path fill="none" stroke="#000000" d="M2996.9994,-180.1686C2999.7025,-187.9537 3002.9225,-197.2271 3005.9218,-205.8653"/>
<polygon fill="#000000" stroke="#000000" points="3002.7108,-207.2881 3009.2973,-215.5867 3009.3235,-204.9919 3002.7108,-207.2881"/>
</g>
<!-- n27 -->
<g id="node28" class="node">
<title>n27</title>
<polygon fill="none" stroke="#000000" points="3976.0274,-252 3557.3543,-252 3408.2482,-216 4125.1335,-216 3976.0274,-252"/>
<text text-anchor="middle" x="3766.6908" y="-230.3" font-family="Times,serif" font-size="14.00" fill="#000000">components_thermostat_regulate_temperature_manage_heat_source</text>
</g>
<!-- n8&#45;&gt;n27 -->
<g id="edge16" class="edge">
<title>n8&#45;&gt;n27</title>
<path fill="none" stroke="#000000" d="M3739.0275,-180.1686C3743.1151,-188.1229 3748.0012,-197.631 3752.5217,-206.4277"/>
<polygon fill="#000000" stroke="#000000" points="3749.5447,-208.2922 3757.2285,-215.5867 3755.7707,-205.0926 3749.5447,-208.2922"/>
</g>
<!-- n28 -->
<g id="node29" class="node">
<title>n28</title>
<polygon fill="none" stroke="#000000" points="4766.3838,-252 4306.9978,-252 4143.3922,-216 4929.9895,-216 4766.3838,-252"/>
<text text-anchor="middle" x="4536.6908" y="-230.3" font-family="Times,serif" font-size="14.00" fill="#000000">components_thermostat_regulate_temperature_manage_regulator_interface</text>
</g>
<!-- n9&#45;&gt;n28 -->
<g id="edge17" class="edge">
<title>n9&#45;&gt;n28</title>
<path fill="none" stroke="#000000" d="M4504.5416,-180.1686C4509.3931,-188.2921 4515.2125,-198.0363 4520.5588,-206.9882"/>
<polygon fill="#000000" stroke="#000000" points="4517.5617,-208.7959 4525.694,-215.5867 4523.5715,-205.2067 4517.5617,-208.7959"/>
</g>
<!-- n29 -->
<g id="node30" class="node">
<title>n29</title>
<polygon fill="none" stroke="#000000" points="5547.9664,-252 5105.4152,-252 4947.8052,-216 5705.5765,-216 5547.9664,-252"/>
<text text-anchor="middle" x="5326.6908" y="-230.3" font-family="Times,serif" font-size="14.00" fill="#000000">components_thermostat_regulate_temperature_manage_regulator_mode</text>
</g>
<!-- n10&#45;&gt;n29 -->
<g id="edge18" class="edge">
<title>n10&#45;&gt;n29</title>
<path fill="none" stroke="#000000" d="M5292.2986,-180.1686C5297.4886,-188.2921 5303.714,-198.0363 5309.4333,-206.9882"/>
<polygon fill="#000000" stroke="#000000" points="5306.5934,-209.0441 5314.9268,-215.5867 5312.4923,-205.2754 5306.5934,-209.0441"/>
</g>
<!-- n11 -->
<g id="node12" class="node">
<title>n11</title>
<polygon fill="none" stroke="#000000" points="315.2308,-324 172.1509,-324 121.1945,-288 366.1872,-288 315.2308,-324"/>
<text text-anchor="middle" x="243.6908" y="-302.3" font-family="Times,serif" font-size="14.00" fill="#000000">apis_heat_source_cpi</text>
</g>
<!-- n12 -->
<g id="node13" class="node">
<title>n12</title>
<polygon fill="none" stroke="#000000" points="2411.5373,-396 2369.8444,-396 2354.9959,-360 2426.3857,-360 2411.5373,-396"/>
<text text-anchor="middle" x="2390.6908" y="-374.3" font-family="Times,serif" font-size="14.00" fill="#000000">data</text>
</g>
<!-- n11&#45;&gt;n12 -->
<g id="edge19" class="edge">
<title>n11&#45;&gt;n12</title>
<path fill="none" stroke="#000000" d="M326.6914,-315.9894C354.8983,-319.0369 386.6304,-322.085 415.6908,-324 812.5967,-350.1555 2111.3637,-373.2408 2352.1123,-377.3512"/>
<polygon fill="#000000" stroke="#000000" points="2352.0833,-380.8511 2362.1414,-377.5218 2352.2025,-373.8521 2352.0833,-380.8511"/>
</g>
<!-- n12&#45;&gt;n0 -->
<g id="edge20" class="edge">
<title>n12&#45;&gt;n0</title>
<path fill="none" stroke="#000000" d="M2390.6908,-396.1686C2390.6908,-403.869 2390.6908,-413.0257 2390.6908,-421.5834"/>
<polygon fill="#000000" stroke="#000000" points="2387.1909,-421.5867 2390.6908,-431.5867 2394.1909,-421.5868 2387.1909,-421.5867"/>
</g>
<!-- n13 -->
<g id="node14" class="node">
<title>n13</title>
<polygon fill="none" stroke="#000000" points="668.8262,-324 488.5555,-324 424.354,-288 733.0277,-288 668.8262,-324"/>
<text text-anchor="middle" x="578.6908" y="-302.3" font-family="Times,serif" font-size="14.00" fill="#000000">apis_operator_interface_oip</text>
</g>
<!-- n13&#45;&gt;n12 -->
<g id="edge21" class="edge">
<title>n13&#45;&gt;n12</title>
<path fill="none" stroke="#000000" d="M685.5278,-314.793C728.1712,-318.0645 777.7317,-321.5684 822.6908,-324 1432.0704,-356.9575 2175.822,-373.5885 2351.9878,-377.2266"/>
<polygon fill="#000000" stroke="#000000" points="2351.9979,-380.7274 2362.0676,-377.4333 2352.1415,-373.7289 2351.9979,-380.7274"/>
</g>
<!-- n14 -->
<g id="node15" class="node">
<title>n14</title>
<polygon fill="none" stroke="#000000" points="1086.5454,-324 898.8363,-324 831.9857,-288 1153.396,-288 1086.5454,-324"/>
<text text-anchor="middle" x="992.6908" y="-302.3" font-family="Times,serif" font-size="14.00" fill="#000000">apis_temperature_sensor_cpi</text>
</g>
<!-- n14&#45;&gt;n12 -->
<g id="edge22" class="edge">
<title>n14&#45;&gt;n12</title>
<path fill="none" stroke="#000000" d="M1101.6855,-315.8837C1135.9165,-318.7727 1173.8614,-321.754 1208.6908,-324 1657.1724,-352.921 2202.3618,-371.8483 2351.4306,-376.7412"/>
<polygon fill="#000000" stroke="#000000" points="2351.7611,-380.2538 2361.87,-377.0821 2351.9896,-373.2575 2351.7611,-380.2538"/>
</g>
<!-- n15 -->
<g id="node16" class="node">
<title>n15</title>
<polygon fill="none" stroke="#000000" points="1673.8249,-324 1337.5567,-324 1217.7983,-288 1793.5834,-288 1673.8249,-324"/>
<text text-anchor="middle" x="1505.6908" y="-302.3" font-family="Times,serif" font-size="14.00" fill="#000000">apis_thermostat_monitor_temperature_manage_alarm</text>
</g>
<!-- n15&#45;&gt;n12 -->
<g id="edge23" class="edge">
<title>n15&#45;&gt;n12</title>
<path fill="none" stroke="#000000" d="M1685.3169,-320.6136C1897.4612,-337.8728 2236.0561,-365.4195 2351.0163,-374.7722"/>
<polygon fill="#000000" stroke="#000000" points="2350.8675,-378.2716 2361.1184,-375.5941 2351.4352,-371.2947 2350.8675,-378.2716"/>
</g>
<!-- n16 -->
<g id="node17" class="node">
<title>n16</title>
<polygon fill="none" stroke="#000000" points="2387.0579,-324 1980.3238,-324 1835.4696,-288 2531.9121,-288 2387.0579,-324"/>
<text text-anchor="middle" x="2183.6908" y="-302.3" font-family="Times,serif" font-size="14.00" fill="#000000">apis_thermostat_monitor_temperature_manage_monitor_interface</text>
</g>
<!-- n16&#45;&gt;n12 -->
<g id="edge24" class="edge">
<title>n16&#45;&gt;n12</title>
<path fill="none" stroke="#000000" d="M2235.6585,-324.0757C2270.2805,-336.1181 2315.2313,-351.7532 2347.8089,-363.0846"/>
<polygon fill="#000000" stroke="#000000" points="2346.902,-366.4747 2357.4969,-366.4543 2349.2017,-359.8633 2346.902,-366.4747"/>
</g>
<!-- n17 -->
<g id="node18" class="node">
<title>n17</title>
<polygon fill="none" stroke="#000000" points="3204.1509,-324 2815.2307,-324 2676.7208,-288 3342.6609,-288 3204.1509,-324"/>
<text text-anchor="middle" x="3009.6908" y="-302.3" font-family="Times,serif" font-size="14.00" fill="#000000">apis_thermostat_monitor_temperature_manage_monitor_mode</text>
</g>
<!-- n17&#45;&gt;n12 -->
<g id="edge25" class="edge">
<title>n17&#45;&gt;n12</title>
<path fill="none" stroke="#000000" d="M2854.689,-324.0293C2713.5429,-340.4469 2514.7395,-363.5711 2430.6933,-373.347"/>
<polygon fill="#000000" stroke="#000000" points="2430.0812,-369.8946 2420.5526,-374.5266 2430.8901,-376.8477 2430.0812,-369.8946"/>
</g>
<!-- n18 -->
<g id="node19" class="node">
<title>n18</title>
<polygon fill="none" stroke="#000000" points="3911.4414,-324 3539.9403,-324 3407.634,-288 4043.7477,-288 3911.4414,-324"/>
<text text-anchor="middle" x="3725.6908" y="-302.3" font-family="Times,serif" font-size="14.00" fill="#000000">apis_thermostat_regulate_temperature_manage_heat_source</text>
</g>
<!-- n18&#45;&gt;n12 -->
<g id="edge26" class="edge">
<title>n18&#45;&gt;n12</title>
<path fill="none" stroke="#000000" d="M3515.2608,-317.349C3190.7143,-334.8527 2588.8113,-367.3149 2429.9631,-375.8819"/>
<polygon fill="#000000" stroke="#000000" points="2429.5209,-372.4006 2419.724,-376.4342 2429.898,-379.3905 2429.5209,-372.4006"/>
</g>
<!-- n19 -->
<g id="node20" class="node">
<title>n19</title>
<polygon fill="none" stroke="#000000" points="4684.7978,-324 4272.5838,-324 4125.7781,-288 4831.6036,-288 4684.7978,-324"/>
<text text-anchor="middle" x="4478.6908" y="-302.3" font-family="Times,serif" font-size="14.00" fill="#000000">apis_thermostat_regulate_temperature_manage_regulator_interface</text>
</g>
<!-- n19&#45;&gt;n12 -->
<g id="edge27" class="edge">
<title>n19&#45;&gt;n12</title>
<path fill="none" stroke="#000000" d="M4241.5538,-316.4305C4180.0536,-319.023 4113.9032,-321.7124 4052.6908,-324 3403.8855,-348.2467 2612.3685,-371.5669 2429.6022,-376.876"/>
<polygon fill="#000000" stroke="#000000" points="2429.3048,-373.383 2419.4106,-377.1717 2429.5079,-380.3801 2429.3048,-373.383"/>
</g>
<!-- n20 -->
<g id="node21" class="node">
<title>n20</title>
<polygon fill="none" stroke="#000000" points="5457.3805,-324 5062.0012,-324 4921.1909,-288 5598.1908,-288 5457.3805,-324"/>
<text text-anchor="middle" x="5259.6908" y="-302.3" font-family="Times,serif" font-size="14.00" fill="#000000">apis_thermostat_regulate_temperature_manage_regulator_mode</text>
</g>
<!-- n20&#45;&gt;n12 -->
<g id="edge28" class="edge">
<title>n20&#45;&gt;n12</title>
<path fill="none" stroke="#000000" d="M5033.0274,-316.6036C4970.7014,-319.2832 4903.0926,-321.9722 4840.6908,-324 3860.1627,-355.8638 2658.2678,-374.1376 2429.3318,-377.4513"/>
<polygon fill="#000000" stroke="#000000" points="2429.1187,-373.954 2419.1703,-377.5978 2429.2197,-380.9532 2429.1187,-373.954"/>
</g>
<!-- n21&#45;&gt;n11 -->
<g id="edge29" class="edge">
<title>n21&#45;&gt;n11</title>
<path fill="none" stroke="#000000" d="M183.1306,-252.1686C193.0113,-260.9515 205.0232,-271.6288 215.7359,-281.1511"/>
<polygon fill="#000000" stroke="#000000" points="213.4583,-283.8094 223.2577,-287.8372 218.1088,-278.5776 213.4583,-283.8094"/>
</g>
<!-- n30 -->
<g id="node31" class="node">
<title>n30</title>
<polygon fill="none" stroke="#000000" points="2627.2677,-324 2570.1139,-324 2549.7592,-288 2647.6225,-288 2627.2677,-324"/>
<text text-anchor="middle" x="2598.6908" y="-302.3" font-family="Times,serif" font-size="14.00" fill="#000000">library</text>
</g>
<!-- n21&#45;&gt;n30 -->
<g id="edge30" class="edge">
<title>n21&#45;&gt;n30</title>
<path fill="none" stroke="#000000" d="M268.5437,-246.5563C290.3868,-248.7313 313.2626,-250.7064 334.6908,-252 579.3891,-266.7719 2298.6245,-249.2784 2540.6908,-288 2540.7949,-288.0167 2540.8991,-288.0335 2541.0034,-288.0504"/>
<polygon fill="#000000" stroke="#000000" points="2540.3455,-291.488 2550.835,-289.9975 2541.7055,-284.6214 2540.3455,-291.488"/>
</g>
<!-- n22&#45;&gt;n13 -->
<g id="edge31" class="edge">
<title>n22&#45;&gt;n13</title>
<path fill="none" stroke="#000000" d="M548.7845,-252.1686C553.2506,-260.2075 558.5983,-269.8334 563.5287,-278.7082"/>
<polygon fill="#000000" stroke="#000000" points="560.5452,-280.5449 568.4612,-287.5867 566.6643,-277.1454 560.5452,-280.5449"/>
</g>
<!-- n22&#45;&gt;n30 -->
<g id="edge32" class="edge">
<title>n22&#45;&gt;n30</title>
<path fill="none" stroke="#000000" d="M665.1007,-246.5021C690.7572,-248.6598 717.5729,-250.642 742.6908,-252 1141.7437,-273.5752 2146.1896,-224.1454 2540.6908,-288 2540.7949,-288.0168 2540.8991,-288.0338 2541.0033,-288.051"/>
<polygon fill="#000000" stroke="#000000" points="2540.3412,-291.4878 2550.8327,-290.0116 2541.7106,-284.623 2540.3412,-291.4878"/>
</g>
<!-- n23&#45;&gt;n14 -->
<g id="edge33" class="edge">
<title>n23&#45;&gt;n14</title>
<path fill="none" stroke="#000000" d="M962.7845,-252.1686C967.2506,-260.2075 972.5983,-269.8334 977.5287,-278.7082"/>
<polygon fill="#000000" stroke="#000000" points="974.5452,-280.5449 982.4612,-287.5867 980.6643,-277.1454 974.5452,-280.5449"/>
</g>
<!-- n23&#45;&gt;n30 -->
<g id="edge34" class="edge">
<title>n23&#45;&gt;n30</title>
<path fill="none" stroke="#000000" d="M1083.3916,-246.4127C1109.6316,-248.5636 1137.025,-250.566 1162.6908,-252 1468.5406,-269.0879 2238.4504,-238.1325 2540.6908,-288 2540.7949,-288.0172 2540.899,-288.0345 2541.0031,-288.0519"/>
<polygon fill="#000000" stroke="#000000" points="2540.3341,-291.4874 2550.8289,-290.035 2541.719,-284.6257 2540.3341,-291.4874"/>
</g>
<!-- n24&#45;&gt;n15 -->
<g id="edge35" class="edge">
<title>n24&#45;&gt;n15</title>
<path fill="none" stroke="#000000" d="M1501.2049,-252.1686C1501.8466,-259.869 1502.6096,-269.0257 1503.3228,-277.5834"/>
<polygon fill="#000000" stroke="#000000" points="1499.8379,-277.912 1504.1564,-287.5867 1506.8138,-277.3306 1499.8379,-277.912"/>
</g>
<!-- n24&#45;&gt;n30 -->
<g id="edge36" class="edge">
<title>n24&#45;&gt;n30</title>
<path fill="none" stroke="#000000" d="M1715.8723,-245.6197C1756.0349,-247.7577 1797.6351,-249.9584 1836.6908,-252 2149.5614,-268.3551 2232.2333,-233.142 2540.6908,-288 2540.7946,-288.0185 2540.8985,-288.0371 2541.0025,-288.0558"/>
<polygon fill="#000000" stroke="#000000" points="2540.3048,-291.4856 2550.8126,-290.1303 2541.7531,-284.637 2540.3048,-291.4856"/>
</g>
<!-- n25&#45;&gt;n16 -->
<g id="edge37" class="edge">
<title>n25&#45;&gt;n16</title>
<path fill="none" stroke="#000000" d="M2221.8214,-252.1686C2216.0073,-260.3768 2209.0212,-270.2394 2202.6262,-279.2677"/>
<polygon fill="#000000" stroke="#000000" points="2199.6577,-277.4034 2196.7336,-287.5867 2205.3699,-281.4495 2199.6577,-277.4034"/>
</g>
<!-- n25&#45;&gt;n30 -->
<g id="edge38" class="edge">
<title>n25&#45;&gt;n30</title>
<path fill="none" stroke="#000000" d="M2357.5247,-252.0404C2413.7053,-261.2205 2480.9231,-273.5134 2540.6908,-288 2540.9022,-288.0512 2541.1139,-288.1028 2541.3259,-288.1547"/>
<polygon fill="#000000" stroke="#000000" points="2540.4714,-291.5488 2551.031,-290.6859 2542.238,-284.7754 2540.4714,-291.5488"/>
</g>
<!-- n26&#45;&gt;n17 -->
<g id="edge39" class="edge">
<title>n26&#45;&gt;n17</title>
<path fill="none" stroke="#000000" d="M3014.1768,-252.1686C3013.5351,-259.869 3012.772,-269.0257 3012.0589,-277.5834"/>
<polygon fill="#000000" stroke="#000000" points="3008.5679,-277.3306 3011.2253,-287.5867 3015.5437,-277.912 3008.5679,-277.3306"/>
</g>
<!-- n26&#45;&gt;n30 -->
<g id="edge40" class="edge">
<title>n26&#45;&gt;n30</title>
<path fill="none" stroke="#000000" d="M2878.3467,-252.0402C2814.0888,-261.3158 2736.6852,-273.6861 2667.6908,-288 2663.5315,-288.8629 2659.2476,-289.8179 2654.9471,-290.8247"/>
<polygon fill="#000000" stroke="#000000" points="2653.8293,-287.4942 2644.9338,-293.2493 2655.4766,-294.2976 2653.8293,-287.4942"/>
</g>
<!-- n27&#45;&gt;n18 -->
<g id="edge41" class="edge">
<title>n27&#45;&gt;n18</title>
<path fill="none" stroke="#000000" d="M3756.3448,-252.1686C3751.7671,-260.2075 3746.2857,-269.8334 3741.232,-278.7082"/>
<polygon fill="#000000" stroke="#000000" points="3738.0832,-277.1649 3736.1762,-287.5867 3744.1661,-280.6288 3738.0832,-277.1649"/>
</g>
<!-- n27&#45;&gt;n30 -->
<g id="edge42" class="edge">
<title>n27&#45;&gt;n30</title>
<path fill="none" stroke="#000000" d="M3530.6084,-245.563C3208.0451,-261.3669 2669.0139,-287.7971 2667.6908,-288 2663.5608,-288.6332 2659.3205,-289.4123 2655.0708,-290.2879"/>
<polygon fill="#000000" stroke="#000000" points="2654.1888,-286.8984 2645.185,-292.4825 2655.7059,-293.732 2654.1888,-286.8984"/>
</g>
<!-- n28&#45;&gt;n19 -->
<g id="edge43" class="edge">
<title>n28&#45;&gt;n19</title>
<path fill="none" stroke="#000000" d="M4522.055,-252.1686C4515.3747,-260.4614 4507.334,-270.443 4500.0005,-279.5467"/>
<polygon fill="#000000" stroke="#000000" points="4497.0714,-277.6035 4493.5237,-287.5867 4502.5227,-281.9948 4497.0714,-277.6035"/>
</g>
<!-- n28&#45;&gt;n30 -->
<g id="edge44" class="edge">
<title>n28&#45;&gt;n30</title>
<path fill="none" stroke="#000000" d="M4280.624,-246.2113C4231.8442,-248.3182 4181.1987,-250.3559 4133.6908,-252 3808.0098,-263.2709 2990.3845,-242.5692 2667.6908,-288 2663.7353,-288.5569 2659.6808,-289.2593 2655.6151,-290.0618"/>
<polygon fill="#000000" stroke="#000000" points="2654.5725,-286.7061 2645.5357,-292.2366 2656.0489,-293.5487 2654.5725,-286.7061"/>
</g>
<!-- n29&#45;&gt;n20 -->
<g id="edge45" class="edge">
<title>n29&#45;&gt;n20</title>
<path fill="none" stroke="#000000" d="M5309.7839,-252.1686C5301.9096,-260.6306 5292.3988,-270.8511 5283.7895,-280.1029"/>
<polygon fill="#000000" stroke="#000000" points="5281.0755,-277.8817 5276.8254,-287.5867 5286.2,-282.6503 5281.0755,-277.8817"/>
</g>
<!-- n29&#45;&gt;n30 -->
<g id="edge46" class="edge">
<title>n29&#45;&gt;n30</title>
<path fill="none" stroke="#000000" d="M5081.207,-246.523C5033.9225,-248.614 4984.7762,-250.5661 4938.6908,-252 4686.4479,-259.8485 2917.7421,-253.9049 2667.6908,-288 2663.733,-288.5397 2659.6767,-289.2292 2655.6096,-290.0223"/>
<polygon fill="#000000" stroke="#000000" points="2654.5736,-286.6647 2645.5279,-292.1807 2656.0391,-293.5096 2654.5736,-286.6647"/>
</g>
<!-- n30&#45;&gt;n12 -->
<g id="edge47" class="edge">
<title>n30&#45;&gt;n12</title>
<path fill="none" stroke="#000000" d="M2566.1908,-317.25C2530.4835,-329.6102 2472.981,-349.5149 2433.5935,-363.1491"/>
<polygon fill="#000000" stroke="#000000" points="2432.2992,-359.8933 2423.9943,-366.4719 2434.589,-366.5082 2432.2992,-359.8933"/>
</g>
<!-- n31 -->
<g id="node32" class="node">
<title>n31</title>
<polygon fill="none" stroke="#000000" points="2214.0382,-36 2163.3435,-36 2145.2891,0 2232.0926,0 2214.0382,-36"/>
<text text-anchor="middle" x="2188.6908" y="-14.3" font-family="Times,serif" font-size="14.00" fill="#000000">demo</text>
</g>
<!-- n31&#45;&gt;n1 -->
<g id="edge48" class="edge">
<title>n31&#45;&gt;n1</title>
<path fill="none" stroke="#000000" d="M2200.2986,-36.1686C2205.4886,-44.2921 2211.714,-54.0363 2217.4333,-62.9882"/>
<polygon fill="#000000" stroke="#000000" points="2214.5934,-65.0441 2222.9268,-71.5867 2220.4923,-61.2754 2214.5934,-65.0441"/>
</g>
<!-- n32 -->
<g id="node33" class="node">
<title>n32</title>
<polygon fill="none" stroke="#000000" points="2300.5791,-36 2262.8026,-36 2249.3489,0 2314.0328,0 2300.5791,-36"/>
<text text-anchor="middle" x="2281.6908" y="-14.3" font-family="Times,serif" font-size="14.00" fill="#000000">test</text>
</g>
<!-- n32&#45;&gt;n1 -->
<g id="edge49" class="edge">
<title>n32&#45;&gt;n1</title>
<path fill="none" stroke="#000000" d="M2269.8308,-36.1686C2264.5279,-44.2921 2258.1672,-54.0363 2252.3235,-62.9882"/>
<polygon fill="#000000" stroke="#000000" points="2249.246,-61.2997 2246.7106,-71.5867 2255.1077,-65.1261 2249.246,-61.2997"/>
</g>
</g>
</svg>
